<?xml version="1.0" standalone="no"?>
<!DOCTYPE svg PUBLIC "-//W3C//DTD SVG 20010904//EN"
 "http://www.w3.org/TR/2001/REC-SVG-20010904/DTD/svg10.dtd">
<svg version="1.0" xmlns="http://www.w3.org/2000/svg"
 width="728.000000pt" height="767.000000pt" viewBox="0 0 728.000000 767.000000"
 preserveAspectRatio="xMidYMid meet">

<g transform="translate(0.000000,767.000000) scale(0.100000,-0.100000)"
fill="#31271e" stroke="none">
<path d="M0 7087 l0 -582 35 -19 c39 -21 60 -69 50 -115 -7 -32 -50 -81 -71
-81 -11 0 -14 -32 -14 -165 0 -151 1 -165 18 -165 28 0 88 -46 102 -79 23 -57
-12 -117 -83 -140 l-37 -13 0 -2864 0 -2864 3640 0 3640 0 0 3835 0 3835
-3640 0 -3640 0 0 -583z m5768 -539 c2 -9 -35 -80 -82 -158 -47 -78 -86 -143
-86 -145 0 -2 -36 -62 -80 -134 -44 -73 -80 -135 -80 -139 0 -4 -21 -41 -48
-82 -45 -72 -80 -130 -169 -285 -39 -67 -56 -97 -104 -182 -12 -21 -25 -42
-29 -48 -8 -10 -22 -34 -90 -155 -20 -36 -84 -145 -141 -242 -122 -208 -225
-384 -257 -442 -47 -82 -190 -326 -320 -546 -11 -19 -38 -66 -60 -105 -21 -38
-88 -152 -148 -252 -60 -100 -134 -226 -164 -279 -99 -174 -149 -246 -165
-237 -8 5 -37 46 -66 93 -28 47 -73 122 -101 167 -67 110 -70 138 -26 211 19
31 61 102 93 157 32 55 80 135 107 178 26 43 48 82 48 86 0 4 18 36 40 70 22
34 40 63 40 65 0 2 27 47 60 99 33 53 65 106 70 119 5 13 42 75 81 138 39 63
91 149 114 190 63 112 167 288 207 350 19 30 57 95 84 144 74 134 104 188 158
278 27 46 66 112 86 148 20 36 92 160 159 276 78 135 119 217 115 228 -5 14
-27 16 -158 16 -83 1 -380 1 -660 1 -318 1 -518 5 -532 11 -12 6 -34 36 -50
67 -15 31 -35 67 -45 81 -9 14 -38 66 -64 115 -25 50 -51 94 -56 100 -10 11
-12 49 -2 58 3 4 526 6 1162 5 1078 -3 1156 -4 1159 -20z m-1420 -800 c2 -10
-22 -59 -54 -110 -32 -51 -71 -118 -88 -148 -16 -30 -36 -61 -43 -68 -8 -8
-20 -29 -27 -47 -8 -18 -34 -63 -58 -101 -39 -61 -144 -233 -218 -357 -14 -24
-38 -64 -55 -91 -66 -105 -274 -447 -326 -536 -144 -244 -182 -300 -205 -300
-17 0 -28 15 -145 215 -80 135 -99 176 -95 197 5 25 47 96 262 446 35 57 64
106 64 108 0 3 17 31 39 62 21 31 50 80 65 107 15 28 46 84 70 124 24 41 42
80 39 87 -7 20 -124 24 -703 24 -588 0 -668 -3 -677 -27 -7 -17 20 -71 112
-228 39 -66 86 -147 104 -180 18 -33 37 -64 41 -70 4 -5 19 -30 32 -55 54 -99
218 -382 238 -409 11 -16 20 -32 20 -35 0 -3 38 -69 84 -148 46 -79 95 -165
110 -193 15 -27 36 -66 48 -85 52 -86 194 -327 206 -350 32 -60 80 -144 157
-275 74 -127 139 -238 245 -425 49 -87 214 -370 257 -443 19 -32 32 -64 29
-72 -4 -13 -42 -15 -224 -15 -160 0 -222 3 -233 13 -16 12 -106 153 -149 232
-48 89 -148 259 -215 365 -12 19 -34 55 -49 80 -14 25 -31 52 -36 60 -15 24
-122 203 -249 418 -18 31 -45 77 -59 102 -14 25 -37 63 -52 85 -15 22 -48 78
-74 125 -50 90 -235 401 -260 436 -8 12 -46 75 -84 140 -38 65 -94 159 -126
208 -31 49 -56 93 -56 97 0 5 -19 39 -43 76 -62 97 -135 219 -170 283 -17 30
-48 82 -68 115 -21 33 -61 101 -90 150 -28 50 -67 111 -85 138 -19 26 -34 50
-34 54 0 3 -7 14 -15 23 -17 19 -108 167 -117 192 -4 9 -4 19 -1 22 4 3 670 5
1482 4 1390 -3 1476 -4 1479 -20z m1617 -3557 c3 -6 -17 -52 -43 -103 -27 -51
-104 -200 -171 -330 -66 -131 -175 -343 -240 -470 -66 -128 -143 -280 -173
-338 l-53 -105 -158 -3 c-137 -2 -157 -1 -157 13 0 9 49 111 109 228 304 593
422 829 418 833 -2 2 -108 5 -235 7 -127 1 -233 5 -237 9 -6 5 -10 206 -6 256
1 9 102 12 470 12 282 0 472 -4 476 -9z m-3225 -544 c52 -26 107 -86 93 -101
-4 -3 -41 -6 -84 -6 -60 0 -88 5 -119 21 -129 67 -250 -96 -128 -171 32 -20
108 -27 142 -14 22 9 20 31 -4 37 -14 3 -20 14 -20 31 l0 26 110 0 110 0 0
-88 c0 -110 -17 -131 -72 -85 -14 13 -21 12 -50 -4 -27 -14 -56 -18 -153 -18
-105 0 -126 3 -166 23 -63 31 -101 87 -107 156 -6 74 11 118 65 165 56 50 99
61 228 57 86 -2 108 -6 155 -29z m-1157 -6 c83 -41 103 -122 44 -184 -41 -44
-83 -56 -229 -64 l-117 -6 -3 -51 -3 -51 -74 -3 c-45 -2 -77 1 -81 8 -5 8 -5
308 -1 373 1 4 94 7 209 5 194 -3 210 -4 255 -27z m625 6 c2 -10 1 -29 -2 -43
-6 -24 -7 -24 -145 -24 -114 0 -141 -3 -152 -16 -9 -11 -10 -20 -2 -32 8 -14
33 -18 129 -22 115 -5 119 -6 122 -28 7 -45 -12 -52 -135 -52 -92 0 -115 -3
-119 -15 -15 -37 12 -44 170 -47 l151 -3 0 -40 0 -40 -240 0 -240 0 -3 180
c-1 98 0 185 3 192 3 11 52 13 232 11 212 -3 228 -4 231 -21z m1119 -1 c10
-13 30 -43 44 -67 15 -24 61 -97 103 -162 42 -66 76 -123 76 -128 0 -5 -33 -9
-72 -9 -70 0 -74 1 -99 32 l-26 31 -124 -2 c-104 -2 -126 -5 -136 -19 -29 -40
-34 -42 -109 -42 -88 0 -87 -3 -24 90 22 32 40 63 40 68 0 5 9 17 20 27 11 10
20 21 20 25 0 11 102 164 114 172 6 4 43 8 83 8 64 0 74 -3 90 -24z m788 -7
c72 -37 96 -82 92 -175 -4 -86 -26 -122 -95 -156 -45 -22 -57 -23 -262 -23
l-215 0 -3 180 c-1 98 0 185 3 193 4 11 46 13 217 10 206 -3 215 -4 263 -29z
m674 -157 c67 -104 121 -192 121 -195 0 -4 -36 -7 -79 -7 -78 0 -80 1 -98 30
-9 17 -22 30 -28 31 -5 0 -62 0 -125 -1 -115 -1 -115 -1 -140 -30 -24 -28 -29
-30 -97 -30 -43 0 -73 4 -73 10 0 12 10 28 143 233 l97 147 79 0 79 0 121
-188z"/>
<path d="M5070 2060 l0 -90 250 0 c215 0 250 -2 250 -15 0 -8 -38 -88 -84
-177 -46 -90 -161 -316 -256 -503 -95 -187 -177 -345 -182 -352 -20 -25 5 -33
101 -33 67 0 102 4 108 13 10 12 135 254 393 762 78 154 164 321 191 372 27
51 49 97 49 103 0 7 -134 10 -410 10 l-410 0 0 -90z"/>
<path d="M1292 1571 c-8 -5 -12 -23 -10 -47 l3 -39 60 -3 c34 -2 79 3 100 10
32 11 40 18 40 38 0 16 -9 29 -25 37 -28 14 -148 17 -168 4z"/>
<path d="M3195 1504 c-15 -25 -24 -51 -22 -58 6 -15 109 -20 118 -5 8 13 -42
109 -58 109 -6 0 -23 -21 -38 -46z"/>
<path d="M3804 1567 c-3 -8 -4 -54 -2 -103 l3 -89 60 -3 c107 -6 175 33 175
99 0 50 -20 77 -68 94 -57 19 -161 20 -168 2z"/>
<path d="M4565 1525 c-8 -14 -22 -36 -30 -50 -9 -14 -13 -30 -10 -35 3 -5 33
-9 65 -9 46 1 60 5 60 16 0 19 -49 103 -61 103 -5 0 -15 -11 -24 -25z"/>
</g>
</svg>
